<?xml version="1.0"?>
<svg width="560" height="193" xmlns="http://www.w3.org/2000/svg" xmlns:svg="http://www.w3.org/2000/svg" preserveAspectRatio="xMidYMid meet" version="1.0">
 <g class="layer">
  <title>Layer 1</title>
  <g fill="#000000" id="svg_1" transform="matrix(0.1 0 0 -0.1 0 0)">
   <path d="m2580,-237c-112,-8 -315,-37 -420,-59c-150,-32 -226,-53 -448,-125c-203,-66 -352,-105 -446,-115c-33,-4 -282,-8 -552,-8c-469,-1 -493,-2 -513,-20c-27,-25 -28,-79 -2,-105c11,-11 35,-23 54,-26c19,-4 207,-5 418,-2c419,5 389,2 739,81c216,49 346,66 499,66c201,0 317,-30 455,-118l50,-32l343,0c189,0 343,4 343,9c0,5 -86,81 -190,170c-105,89 -188,166 -185,172c9,14 151,11 188,-5c18,-7 109,-79 202,-161c94,-81 181,-155 195,-164c21,-14 73,-17 375,-22c387,-7 486,-17 711,-74c273,-70 554,-210 719,-359l50,-45l-113,-1c-129,0 -142,4 -257,80c-159,104 -359,188 -557,232c-89,21 -126,22 -963,27c-859,6 -871,6 -922,27c-29,12 -76,36 -105,54c-123,76 -277,101 -501,82c-78,-7 -182,-19 -232,-28c-102,-17 -578,-130 -612,-144c-16,-6 -23,-18 -23,-36c0,-43 49,-175 91,-247c42,-71 157,-213 228,-282c23,-21 41,-42 41,-47c0,-4 -131,-8 -291,-10c-274,-3 -291,-4 -305,-22c-21,-29 -18,-80 7,-102c19,-17 41,-19 262,-22l241,-2l39,-28c69,-47 81,-52 140,-52l57,0l-19,38c-10,20 -29,70 -41,110c-48,158 -9,305 110,415c76,71 147,99 250,99c315,1 504,-347 339,-626l-21,-36l811,0c446,0 811,2 811,4c0,3 -14,47 -31,98c-68,203 -30,365 112,478c78,62 146,83 255,78c73,-3 101,-9 146,-31c86,-42 142,-98 185,-183c31,-64 37,-88 41,-158c5,-93 -13,-172 -55,-245l-25,-44l258,6c210,4 277,9 355,26c174,38 298,98 392,192c94,95 119,178 76,265c-44,92 -250,254 -449,354c-237,119 -557,190 -855,190c-60,0 -87,4 -105,17c-14,9 -114,84 -223,165c-292,218 -302,223 -512,244c-124,12 -488,16 -615,7zm785,-142c33,-16 87,-48 121,-72c98,-71 284,-222 284,-231c0,-4 -40,-8 -89,-8l-89,0l-184,151c-251,208 -235,189 -163,189c46,0 74,-7 120,-29zm-1520,-521c221,-34 503,-110 775,-208c282,-102 714,-272 722,-285c4,-7 15,-35 23,-64c8,-29 18,-60 22,-69c5,-14 2,-16 -21,-10c-36,9 -895,343 -1304,507c-313,126 -385,158 -317,145c17,-3 62,-10 100,-16zm3365,-419c0,-21 -59,-95 -100,-126c-19,-15 -42,-19 -105,-20c-97,0 -135,9 -135,33c0,21 97,118 125,125c11,3 64,5 118,6c90,1 97,0 97,-18z" fill="#ff0000" id="svg_2"/>
   <path d="m337,-1162c-42,-15 -53,-83 -20,-120c15,-16 42,-18 290,-18l273,0l-32,58c-55,99 -33,92 -272,91c-116,0 -223,-5 -239,-11z" fill="#ff0000" id="svg_3"/>
   <path d="m1605,-1229c-81,-36 -126,-116 -126,-219c0,-139 90,-238 215,-236c93,1 160,46 199,133c24,54 26,150 5,201c-21,50 -64,98 -109,120c-49,25 -130,26 -184,1z" fill="#ff0000" id="svg_4"/>
   <path d="m3865,-1224c-82,-36 -129,-118 -129,-226c-1,-62 3,-83 24,-120c112,-199 386,-132 407,100c10,105 -48,210 -133,246c-42,18 -130,17 -169,0z" fill="#ff0000" id="svg_5"/>
  </g>
 </g>
</svg>